<?xml version="1.0" encoding="utf-8" standalone="no"?>
<!DOCTYPE svg PUBLIC "-//W3C//DTD SVG 1.1//EN"
  "http://www.w3.org/Graphics/SVG/1.1/DTD/svg11.dtd">
<!-- Created with matplotlib (https://matplotlib.org/) -->
<svg height="288pt" version="1.1" viewBox="0 0 432 288" width="432pt" xmlns="http://www.w3.org/2000/svg" xmlns:xlink="http://www.w3.org/1999/xlink">
 <defs>
  <style type="text/css">
*{stroke-linecap:butt;stroke-linejoin:round;}
  </style>
 </defs>
 <g id="figure_1">
  <g id="patch_1">
   <path d="M 0 288 
L 432 288 
L 432 0 
L 0 0 
z
" style="fill:#ffffff;"/>
  </g>
  <g id="axes_1">
   <g id="patch_2">
    <path d="M 54 252 
L 388.8 252 
L 388.8 34.56 
L 54 34.56 
z
" style="fill:#ffffff;"/>
   </g>
   <g id="PolyCollection_1">
    <path clip-path="url(#pe04cabf253)" d="M 69.218182 236.369349 
L 69.218182 236.388898 
L 81.9 233.757279 
L 94.581818 231.423268 
L 107.263636 230.798399 
L 119.945455 229.308947 
L 132.627273 227.892074 
L 145.309091 227.685531 
L 157.990909 227.602604 
L 170.672727 226.933659 
L 183.354545 226.304475 
L 196.036364 225.784921 
L 208.718182 225.653034 
L 221.4 225.591396 
L 234.081818 225.521394 
L 246.763636 225.483859 
L 259.445455 225.451049 
L 272.127273 225.369045 
L 284.809091 225.263788 
L 297.490909 225.115769 
L 310.172727 225.006458 
L 322.854545 224.971135 
L 335.536364 224.922336 
L 348.218182 224.873133 
L 360.9 224.832639 
L 373.581818 224.800245 
L 373.581818 224.378528 
L 373.581818 224.378528 
L 360.9 224.409019 
L 348.218182 224.451108 
L 335.536364 224.512689 
L 322.854545 224.571709 
L 310.172727 224.611862 
L 297.490909 224.738138 
L 284.809091 224.936665 
L 272.127273 225.081346 
L 259.445455 225.14125 
L 246.763636 225.170645 
L 234.081818 225.230016 
L 221.4 225.30613 
L 208.718182 225.375838 
L 196.036364 225.46961 
L 183.354545 225.899175 
L 170.672727 226.524711 
L 157.990909 227.239846 
L 145.309091 227.315132 
L 132.627273 227.524156 
L 119.945455 229.005628 
L 107.263636 230.62811 
L 94.581818 231.315446 
L 81.9 233.735077 
L 69.218182 236.369349 
z
" style="fill:#1f77b4;fill-opacity:0.7;"/>
   </g>
   <g id="PolyCollection_2">
    <path clip-path="url(#pe04cabf253)" d="M 69.218182 242.115998 
L 69.218182 242.116364 
L 81.9 242.024595 
L 94.581818 242.018815 
L 107.263636 241.995178 
L 119.945455 241.310255 
L 132.627273 241.148135 
L 145.309091 240.055621 
L 157.990909 239.869687 
L 170.672727 239.664436 
L 183.354545 238.072961 
L 196.036364 237.898786 
L 208.718182 237.733475 
L 221.4 235.667856 
L 234.081818 235.625875 
L 246.763636 235.625875 
L 259.445455 235.625875 
L 272.127273 235.625875 
L 284.809091 235.625875 
L 297.490909 233.089897 
L 310.172727 233.089897 
L 322.854545 232.470569 
L 335.536364 231.891285 
L 348.218182 231.418002 
L 360.9 229.48861 
L 373.581818 229.253701 
L 373.581818 229.206244 
L 373.581818 229.206244 
L 360.9 229.442931 
L 348.218182 231.338032 
L 335.536364 231.831575 
L 322.854545 232.391711 
L 310.172727 232.94348 
L 297.490909 232.94348 
L 284.809091 235.58953 
L 272.127273 235.58953 
L 259.445455 235.58953 
L 246.763636 235.58953 
L 234.081818 235.58953 
L 221.4 235.627317 
L 208.718182 237.687883 
L 196.036364 237.862927 
L 183.354545 238.039501 
L 170.672727 239.613644 
L 157.990909 239.812321 
L 145.309091 239.993677 
L 132.627273 241.070741 
L 119.945455 241.258346 
L 107.263636 241.966132 
L 94.581818 242.013673 
L 81.9 242.024242 
L 69.218182 242.115998 
z
" style="fill:#ff7f0e;fill-opacity:0.7;"/>
   </g>
   <g id="PolyCollection_3">
    <path clip-path="url(#pe04cabf253)" d="M 69.218182 197.111213 
L 69.218182 206.008527 
L 81.9 205.766928 
L 94.581818 205.650383 
L 107.263636 205.49722 
L 119.945455 205.447737 
L 132.627273 205.403871 
L 145.309091 205.189704 
L 157.990909 205.070611 
L 170.672727 204.979338 
L 183.354545 204.832745 
L 196.036364 204.564424 
L 208.718182 203.963375 
L 221.4 203.522251 
L 234.081818 203.033005 
L 246.763636 202.459322 
L 259.445455 201.899253 
L 272.127273 201.596407 
L 284.809091 201.580672 
L 297.490909 201.453719 
L 310.172727 201.250712 
L 322.854545 200.712009 
L 335.536364 200.108805 
L 348.218182 199.401676 
L 360.9 198.612738 
L 373.581818 198.063686 
L 373.581818 195.970035 
L 373.581818 195.970035 
L 360.9 196.160489 
L 348.218182 196.299438 
L 335.536364 196.377792 
L 322.854545 196.427477 
L 310.172727 196.463741 
L 297.490909 196.475967 
L 284.809091 196.483281 
L 272.127273 196.484171 
L 259.445455 196.545913 
L 246.763636 196.636046 
L 234.081818 196.749188 
L 221.4 196.871993 
L 208.718182 196.956723 
L 196.036364 197.062843 
L 183.354545 197.072358 
L 170.672727 197.077442 
L 157.990909 197.080569 
L 145.309091 197.084606 
L 132.627273 197.091752 
L 119.945455 197.093198 
L 107.263636 197.094823 
L 94.581818 197.099806 
L 81.9 197.103555 
L 69.218182 197.111213 
z
" style="fill:#2ca02c;fill-opacity:0.7;"/>
   </g>
   <g id="PolyCollection_4">
    <path clip-path="url(#pe04cabf253)" d="M 69.218182 236.419704 
L 69.218182 236.432891 
L 81.9 234.712373 
L 94.581818 229.996208 
L 107.263636 223.40885 
L 119.945455 210.543568 
L 132.627273 191.213459 
L 145.309091 164.937655 
L 157.990909 144.202432 
L 170.672727 107.808983 
L 183.354545 80.357961 
L 196.036364 45.803068 
L 208.718182 45.787456 
L 221.4 45.692665 
L 234.081818 45.691844 
L 246.763636 45.691844 
L 259.445455 45.691844 
L 272.127273 45.691844 
L 284.809091 45.691844 
L 297.490909 45.691844 
L 310.172727 45.691844 
L 322.854545 45.691844 
L 335.536364 45.691844 
L 348.218182 45.691844 
L 360.9 45.691844 
L 373.581818 45.691844 
L 373.581818 44.443636 
L 373.581818 44.443636 
L 360.9 44.443636 
L 348.218182 44.443636 
L 335.536364 44.443636 
L 322.854545 44.443636 
L 310.172727 44.443636 
L 297.490909 44.443636 
L 284.809091 44.443636 
L 272.127273 44.443636 
L 259.445455 44.443636 
L 246.763636 44.443636 
L 234.081818 44.443636 
L 221.4 44.444408 
L 208.718182 44.522793 
L 196.036364 44.534076 
L 183.354545 79.31399 
L 170.672727 106.969373 
L 157.990909 143.50211 
L 145.309091 164.272003 
L 132.627273 190.688031 
L 119.945455 210.105998 
L 107.263636 223.133836 
L 94.581818 229.969299 
L 81.9 234.683635 
L 69.218182 236.419704 
z
" style="fill:#d62728;fill-opacity:0.7;"/>
   </g>
   <g id="matplotlib.axis_1">
    <g id="xtick_1">
     <g id="line2d_1">
      <defs>
       <path d="M 0 0 
L 0 3.5 
" id="m2365e59fe5" style="stroke:#000000;stroke-width:0.8;"/>
      </defs>
      <g>
       <use style="stroke:#000000;stroke-width:0.8;" x="56.536364" xlink:href="#m2365e59fe5" y="252"/>
      </g>
     </g>
     <g id="text_1">
      <!-- 0 -->
      <defs>
       <path d="M 31.78125 66.40625 
Q 24.171875 66.40625 20.328125 58.90625 
Q 16.5 51.421875 16.5 36.375 
Q 16.5 21.390625 20.328125 13.890625 
Q 24.171875 6.390625 31.78125 6.390625 
Q 39.453125 6.390625 43.28125 13.890625 
Q 47.125 21.390625 47.125 36.375 
Q 47.125 51.421875 43.28125 58.90625 
Q 39.453125 66.40625 31.78125 66.40625 
z
M 31.78125 74.21875 
Q 44.046875 74.21875 50.515625 64.515625 
Q 56.984375 54.828125 56.984375 36.375 
Q 56.984375 17.96875 50.515625 8.265625 
Q 44.046875 -1.421875 31.78125 -1.421875 
Q 19.53125 -1.421875 13.0625 8.265625 
Q 6.59375 17.96875 6.59375 36.375 
Q 6.59375 54.828125 13.0625 64.515625 
Q 19.53125 74.21875 31.78125 74.21875 
z
" id="DejaVuSans-48"/>
      </defs>
      <g transform="translate(51.955364 269.94175)scale(0.144 -0.144)">
       <use xlink:href="#DejaVuSans-48"/>
      </g>
     </g>
    </g>
    <g id="xtick_2">
     <g id="line2d_2">
      <g>
       <use style="stroke:#000000;stroke-width:0.8;" x="119.945455" xlink:href="#m2365e59fe5" y="252"/>
      </g>
     </g>
     <g id="text_2">
      <!-- 500 -->
      <defs>
       <path d="M 10.796875 72.90625 
L 49.515625 72.90625 
L 49.515625 64.59375 
L 19.828125 64.59375 
L 19.828125 46.734375 
Q 21.96875 47.46875 24.109375 47.828125 
Q 26.265625 48.1875 28.421875 48.1875 
Q 40.625 48.1875 47.75 41.5 
Q 54.890625 34.8125 54.890625 23.390625 
Q 54.890625 11.625 47.5625 5.09375 
Q 40.234375 -1.421875 26.90625 -1.421875 
Q 22.3125 -1.421875 17.546875 -0.640625 
Q 12.796875 0.140625 7.71875 1.703125 
L 7.71875 11.625 
Q 12.109375 9.234375 16.796875 8.0625 
Q 21.484375 6.890625 26.703125 6.890625 
Q 35.15625 6.890625 40.078125 11.328125 
Q 45.015625 15.765625 45.015625 23.390625 
Q 45.015625 31 40.078125 35.4375 
Q 35.15625 39.890625 26.703125 39.890625 
Q 22.75 39.890625 18.8125 39.015625 
Q 14.890625 38.140625 10.796875 36.28125 
z
" id="DejaVuSans-53"/>
      </defs>
      <g transform="translate(106.202455 269.94175)scale(0.144 -0.144)">
       <use xlink:href="#DejaVuSans-53"/>
       <use x="63.623047" xlink:href="#DejaVuSans-48"/>
       <use x="127.246094" xlink:href="#DejaVuSans-48"/>
      </g>
     </g>
    </g>
    <g id="xtick_3">
     <g id="line2d_3">
      <g>
       <use style="stroke:#000000;stroke-width:0.8;" x="183.354545" xlink:href="#m2365e59fe5" y="252"/>
      </g>
     </g>
     <g id="text_3">
      <!-- 1000 -->
      <defs>
       <path d="M 12.40625 8.296875 
L 28.515625 8.296875 
L 28.515625 63.921875 
L 10.984375 60.40625 
L 10.984375 69.390625 
L 28.421875 72.90625 
L 38.28125 72.90625 
L 38.28125 8.296875 
L 54.390625 8.296875 
L 54.390625 0 
L 12.40625 0 
z
" id="DejaVuSans-49"/>
      </defs>
      <g transform="translate(165.030545 269.94175)scale(0.144 -0.144)">
       <use xlink:href="#DejaVuSans-49"/>
       <use x="63.623047" xlink:href="#DejaVuSans-48"/>
       <use x="127.246094" xlink:href="#DejaVuSans-48"/>
       <use x="190.869141" xlink:href="#DejaVuSans-48"/>
      </g>
     </g>
    </g>
    <g id="xtick_4">
     <g id="line2d_4">
      <g>
       <use style="stroke:#000000;stroke-width:0.8;" x="246.763636" xlink:href="#m2365e59fe5" y="252"/>
      </g>
     </g>
     <g id="text_4">
      <!-- 1500 -->
      <g transform="translate(228.439636 269.94175)scale(0.144 -0.144)">
       <use xlink:href="#DejaVuSans-49"/>
       <use x="63.623047" xlink:href="#DejaVuSans-53"/>
       <use x="127.246094" xlink:href="#DejaVuSans-48"/>
       <use x="190.869141" xlink:href="#DejaVuSans-48"/>
      </g>
     </g>
    </g>
    <g id="xtick_5">
     <g id="line2d_5">
      <g>
       <use style="stroke:#000000;stroke-width:0.8;" x="310.172727" xlink:href="#m2365e59fe5" y="252"/>
      </g>
     </g>
     <g id="text_5">
      <!-- 2000 -->
      <defs>
       <path d="M 19.1875 8.296875 
L 53.609375 8.296875 
L 53.609375 0 
L 7.328125 0 
L 7.328125 8.296875 
Q 12.9375 14.109375 22.625 23.890625 
Q 32.328125 33.6875 34.8125 36.53125 
Q 39.546875 41.84375 41.421875 45.53125 
Q 43.3125 49.21875 43.3125 52.78125 
Q 43.3125 58.59375 39.234375 62.25 
Q 35.15625 65.921875 28.609375 65.921875 
Q 23.96875 65.921875 18.8125 64.3125 
Q 13.671875 62.703125 7.8125 59.421875 
L 7.8125 69.390625 
Q 13.765625 71.78125 18.9375 73 
Q 24.125 74.21875 28.421875 74.21875 
Q 39.75 74.21875 46.484375 68.546875 
Q 53.21875 62.890625 53.21875 53.421875 
Q 53.21875 48.921875 51.53125 44.890625 
Q 49.859375 40.875 45.40625 35.40625 
Q 44.1875 33.984375 37.640625 27.21875 
Q 31.109375 20.453125 19.1875 8.296875 
z
" id="DejaVuSans-50"/>
      </defs>
      <g transform="translate(291.848727 269.94175)scale(0.144 -0.144)">
       <use xlink:href="#DejaVuSans-50"/>
       <use x="63.623047" xlink:href="#DejaVuSans-48"/>
       <use x="127.246094" xlink:href="#DejaVuSans-48"/>
       <use x="190.869141" xlink:href="#DejaVuSans-48"/>
      </g>
     </g>
    </g>
    <g id="xtick_6">
     <g id="line2d_6">
      <g>
       <use style="stroke:#000000;stroke-width:0.8;" x="373.581818" xlink:href="#m2365e59fe5" y="252"/>
      </g>
     </g>
     <g id="text_6">
      <!-- 2500 -->
      <g transform="translate(355.257818 269.94175)scale(0.144 -0.144)">
       <use xlink:href="#DejaVuSans-50"/>
       <use x="63.623047" xlink:href="#DejaVuSans-53"/>
       <use x="127.246094" xlink:href="#DejaVuSans-48"/>
       <use x="190.869141" xlink:href="#DejaVuSans-48"/>
      </g>
     </g>
    </g>
    <g id="text_7">
     <!-- Number of Observations -->
     <defs>
      <path d="M 9.8125 72.90625 
L 23.09375 72.90625 
L 55.421875 11.921875 
L 55.421875 72.90625 
L 64.984375 72.90625 
L 64.984375 0 
L 51.703125 0 
L 19.390625 60.984375 
L 19.390625 0 
L 9.8125 0 
z
" id="DejaVuSans-78"/>
      <path d="M 8.5 21.578125 
L 8.5 54.6875 
L 17.484375 54.6875 
L 17.484375 21.921875 
Q 17.484375 14.15625 20.5 10.265625 
Q 23.53125 6.390625 29.59375 6.390625 
Q 36.859375 6.390625 41.078125 11.03125 
Q 45.3125 15.671875 45.3125 23.6875 
L 45.3125 54.6875 
L 54.296875 54.6875 
L 54.296875 0 
L 45.3125 0 
L 45.3125 8.40625 
Q 42.046875 3.421875 37.71875 1 
Q 33.40625 -1.421875 27.6875 -1.421875 
Q 18.265625 -1.421875 13.375 4.4375 
Q 8.5 10.296875 8.5 21.578125 
z
M 31.109375 56 
z
" id="DejaVuSans-117"/>
      <path d="M 52 44.1875 
Q 55.375 50.25 60.0625 53.125 
Q 64.75 56 71.09375 56 
Q 79.640625 56 84.28125 50.015625 
Q 88.921875 44.046875 88.921875 33.015625 
L 88.921875 0 
L 79.890625 0 
L 79.890625 32.71875 
Q 79.890625 40.578125 77.09375 44.375 
Q 74.3125 48.1875 68.609375 48.1875 
Q 61.625 48.1875 57.5625 43.546875 
Q 53.515625 38.921875 53.515625 30.90625 
L 53.515625 0 
L 44.484375 0 
L 44.484375 32.71875 
Q 44.484375 40.625 41.703125 44.40625 
Q 38.921875 48.1875 33.109375 48.1875 
Q 26.21875 48.1875 22.15625 43.53125 
Q 18.109375 38.875 18.109375 30.90625 
L 18.109375 0 
L 9.078125 0 
L 9.078125 54.6875 
L 18.109375 54.6875 
L 18.109375 46.1875 
Q 21.1875 51.21875 25.484375 53.609375 
Q 29.78125 56 35.6875 56 
Q 41.65625 56 45.828125 52.96875 
Q 50 49.953125 52 44.1875 
z
" id="DejaVuSans-109"/>
      <path d="M 48.6875 27.296875 
Q 48.6875 37.203125 44.609375 42.84375 
Q 40.53125 48.484375 33.40625 48.484375 
Q 26.265625 48.484375 22.1875 42.84375 
Q 18.109375 37.203125 18.109375 27.296875 
Q 18.109375 17.390625 22.1875 11.75 
Q 26.265625 6.109375 33.40625 6.109375 
Q 40.53125 6.109375 44.609375 11.75 
Q 48.6875 17.390625 48.6875 27.296875 
z
M 18.109375 46.390625 
Q 20.953125 51.265625 25.265625 53.625 
Q 29.59375 56 35.59375 56 
Q 45.5625 56 51.78125 48.09375 
Q 58.015625 40.1875 58.015625 27.296875 
Q 58.015625 14.40625 51.78125 6.484375 
Q 45.5625 -1.421875 35.59375 -1.421875 
Q 29.59375 -1.421875 25.265625 0.953125 
Q 20.953125 3.328125 18.109375 8.203125 
L 18.109375 0 
L 9.078125 0 
L 9.078125 75.984375 
L 18.109375 75.984375 
z
" id="DejaVuSans-98"/>
      <path d="M 56.203125 29.59375 
L 56.203125 25.203125 
L 14.890625 25.203125 
Q 15.484375 15.921875 20.484375 11.0625 
Q 25.484375 6.203125 34.421875 6.203125 
Q 39.59375 6.203125 44.453125 7.46875 
Q 49.3125 8.734375 54.109375 11.28125 
L 54.109375 2.78125 
Q 49.265625 0.734375 44.1875 -0.34375 
Q 39.109375 -1.421875 33.890625 -1.421875 
Q 20.796875 -1.421875 13.15625 6.1875 
Q 5.515625 13.8125 5.515625 26.8125 
Q 5.515625 40.234375 12.765625 48.109375 
Q 20.015625 56 32.328125 56 
Q 43.359375 56 49.78125 48.890625 
Q 56.203125 41.796875 56.203125 29.59375 
z
M 47.21875 32.234375 
Q 47.125 39.59375 43.09375 43.984375 
Q 39.0625 48.390625 32.421875 48.390625 
Q 24.90625 48.390625 20.390625 44.140625 
Q 15.875 39.890625 15.1875 32.171875 
z
" id="DejaVuSans-101"/>
      <path d="M 41.109375 46.296875 
Q 39.59375 47.171875 37.8125 47.578125 
Q 36.03125 48 33.890625 48 
Q 26.265625 48 22.1875 43.046875 
Q 18.109375 38.09375 18.109375 28.8125 
L 18.109375 0 
L 9.078125 0 
L 9.078125 54.6875 
L 18.109375 54.6875 
L 18.109375 46.1875 
Q 20.953125 51.171875 25.484375 53.578125 
Q 30.03125 56 36.53125 56 
Q 37.453125 56 38.578125 55.875 
Q 39.703125 55.765625 41.0625 55.515625 
z
" id="DejaVuSans-114"/>
      <path id="DejaVuSans-32"/>
      <path d="M 30.609375 48.390625 
Q 23.390625 48.390625 19.1875 42.75 
Q 14.984375 37.109375 14.984375 27.296875 
Q 14.984375 17.484375 19.15625 11.84375 
Q 23.34375 6.203125 30.609375 6.203125 
Q 37.796875 6.203125 41.984375 11.859375 
Q 46.1875 17.53125 46.1875 27.296875 
Q 46.1875 37.015625 41.984375 42.703125 
Q 37.796875 48.390625 30.609375 48.390625 
z
M 30.609375 56 
Q 42.328125 56 49.015625 48.375 
Q 55.71875 40.765625 55.71875 27.296875 
Q 55.71875 13.875 49.015625 6.21875 
Q 42.328125 -1.421875 30.609375 -1.421875 
Q 18.84375 -1.421875 12.171875 6.21875 
Q 5.515625 13.875 5.515625 27.296875 
Q 5.515625 40.765625 12.171875 48.375 
Q 18.84375 56 30.609375 56 
z
" id="DejaVuSans-111"/>
      <path d="M 37.109375 75.984375 
L 37.109375 68.5 
L 28.515625 68.5 
Q 23.6875 68.5 21.796875 66.546875 
Q 19.921875 64.59375 19.921875 59.515625 
L 19.921875 54.6875 
L 34.71875 54.6875 
L 34.71875 47.703125 
L 19.921875 47.703125 
L 19.921875 0 
L 10.890625 0 
L 10.890625 47.703125 
L 2.296875 47.703125 
L 2.296875 54.6875 
L 10.890625 54.6875 
L 10.890625 58.5 
Q 10.890625 67.625 15.140625 71.796875 
Q 19.390625 75.984375 28.609375 75.984375 
z
" id="DejaVuSans-102"/>
      <path d="M 39.40625 66.21875 
Q 28.65625 66.21875 22.328125 58.203125 
Q 16.015625 50.203125 16.015625 36.375 
Q 16.015625 22.609375 22.328125 14.59375 
Q 28.65625 6.59375 39.40625 6.59375 
Q 50.140625 6.59375 56.421875 14.59375 
Q 62.703125 22.609375 62.703125 36.375 
Q 62.703125 50.203125 56.421875 58.203125 
Q 50.140625 66.21875 39.40625 66.21875 
z
M 39.40625 74.21875 
Q 54.734375 74.21875 63.90625 63.9375 
Q 73.09375 53.65625 73.09375 36.375 
Q 73.09375 19.140625 63.90625 8.859375 
Q 54.734375 -1.421875 39.40625 -1.421875 
Q 24.03125 -1.421875 14.8125 8.828125 
Q 5.609375 19.09375 5.609375 36.375 
Q 5.609375 53.65625 14.8125 63.9375 
Q 24.03125 74.21875 39.40625 74.21875 
z
" id="DejaVuSans-79"/>
      <path d="M 44.28125 53.078125 
L 44.28125 44.578125 
Q 40.484375 46.53125 36.375 47.5 
Q 32.28125 48.484375 27.875 48.484375 
Q 21.1875 48.484375 17.84375 46.4375 
Q 14.5 44.390625 14.5 40.28125 
Q 14.5 37.15625 16.890625 35.375 
Q 19.28125 33.59375 26.515625 31.984375 
L 29.59375 31.296875 
Q 39.15625 29.25 43.1875 25.515625 
Q 47.21875 21.78125 47.21875 15.09375 
Q 47.21875 7.46875 41.1875 3.015625 
Q 35.15625 -1.421875 24.609375 -1.421875 
Q 20.21875 -1.421875 15.453125 -0.5625 
Q 10.6875 0.296875 5.421875 2 
L 5.421875 11.28125 
Q 10.40625 8.6875 15.234375 7.390625 
Q 20.0625 6.109375 24.8125 6.109375 
Q 31.15625 6.109375 34.5625 8.28125 
Q 37.984375 10.453125 37.984375 14.40625 
Q 37.984375 18.0625 35.515625 20.015625 
Q 33.0625 21.96875 24.703125 23.78125 
L 21.578125 24.515625 
Q 13.234375 26.265625 9.515625 29.90625 
Q 5.8125 33.546875 5.8125 39.890625 
Q 5.8125 47.609375 11.28125 51.796875 
Q 16.75 56 26.8125 56 
Q 31.78125 56 36.171875 55.265625 
Q 40.578125 54.546875 44.28125 53.078125 
z
" id="DejaVuSans-115"/>
      <path d="M 2.984375 54.6875 
L 12.5 54.6875 
L 29.59375 8.796875 
L 46.6875 54.6875 
L 56.203125 54.6875 
L 35.6875 0 
L 23.484375 0 
z
" id="DejaVuSans-118"/>
      <path d="M 34.28125 27.484375 
Q 23.390625 27.484375 19.1875 25 
Q 14.984375 22.515625 14.984375 16.5 
Q 14.984375 11.71875 18.140625 8.90625 
Q 21.296875 6.109375 26.703125 6.109375 
Q 34.1875 6.109375 38.703125 11.40625 
Q 43.21875 16.703125 43.21875 25.484375 
L 43.21875 27.484375 
z
M 52.203125 31.203125 
L 52.203125 0 
L 43.21875 0 
L 43.21875 8.296875 
Q 40.140625 3.328125 35.546875 0.953125 
Q 30.953125 -1.421875 24.3125 -1.421875 
Q 15.921875 -1.421875 10.953125 3.296875 
Q 6 8.015625 6 15.921875 
Q 6 25.140625 12.171875 29.828125 
Q 18.359375 34.515625 30.609375 34.515625 
L 43.21875 34.515625 
L 43.21875 35.40625 
Q 43.21875 41.609375 39.140625 45 
Q 35.0625 48.390625 27.6875 48.390625 
Q 23 48.390625 18.546875 47.265625 
Q 14.109375 46.140625 10.015625 43.890625 
L 10.015625 52.203125 
Q 14.9375 54.109375 19.578125 55.046875 
Q 24.21875 56 28.609375 56 
Q 40.484375 56 46.34375 49.84375 
Q 52.203125 43.703125 52.203125 31.203125 
z
" id="DejaVuSans-97"/>
      <path d="M 18.3125 70.21875 
L 18.3125 54.6875 
L 36.8125 54.6875 
L 36.8125 47.703125 
L 18.3125 47.703125 
L 18.3125 18.015625 
Q 18.3125 11.328125 20.140625 9.421875 
Q 21.96875 7.515625 27.59375 7.515625 
L 36.8125 7.515625 
L 36.8125 0 
L 27.59375 0 
Q 17.1875 0 13.234375 3.875 
Q 9.28125 7.765625 9.28125 18.015625 
L 9.28125 47.703125 
L 2.6875 47.703125 
L 2.6875 54.6875 
L 9.28125 54.6875 
L 9.28125 70.21875 
z
" id="DejaVuSans-116"/>
      <path d="M 9.421875 54.6875 
L 18.40625 54.6875 
L 18.40625 0 
L 9.421875 0 
z
M 9.421875 75.984375 
L 18.40625 75.984375 
L 18.40625 64.59375 
L 9.421875 64.59375 
z
" id="DejaVuSans-105"/>
      <path d="M 54.890625 33.015625 
L 54.890625 0 
L 45.90625 0 
L 45.90625 32.71875 
Q 45.90625 40.484375 42.875 44.328125 
Q 39.84375 48.1875 33.796875 48.1875 
Q 26.515625 48.1875 22.3125 43.546875 
Q 18.109375 38.921875 18.109375 30.90625 
L 18.109375 0 
L 9.078125 0 
L 9.078125 54.6875 
L 18.109375 54.6875 
L 18.109375 46.1875 
Q 21.34375 51.125 25.703125 53.5625 
Q 30.078125 56 35.796875 56 
Q 45.21875 56 50.046875 50.171875 
Q 54.890625 44.34375 54.890625 33.015625 
z
" id="DejaVuSans-110"/>
     </defs>
     <g transform="translate(133.36425 287.87825)scale(0.144 -0.144)">
      <use xlink:href="#DejaVuSans-78"/>
      <use x="74.804688" xlink:href="#DejaVuSans-117"/>
      <use x="138.183594" xlink:href="#DejaVuSans-109"/>
      <use x="235.595703" xlink:href="#DejaVuSans-98"/>
      <use x="299.072266" xlink:href="#DejaVuSans-101"/>
      <use x="360.595703" xlink:href="#DejaVuSans-114"/>
      <use x="401.708984" xlink:href="#DejaVuSans-32"/>
      <use x="433.496094" xlink:href="#DejaVuSans-111"/>
      <use x="494.677734" xlink:href="#DejaVuSans-102"/>
      <use x="529.882812" xlink:href="#DejaVuSans-32"/>
      <use x="561.669922" xlink:href="#DejaVuSans-79"/>
      <use x="640.380859" xlink:href="#DejaVuSans-98"/>
      <use x="703.857422" xlink:href="#DejaVuSans-115"/>
      <use x="755.957031" xlink:href="#DejaVuSans-101"/>
      <use x="817.480469" xlink:href="#DejaVuSans-114"/>
      <use x="858.59375" xlink:href="#DejaVuSans-118"/>
      <use x="917.773438" xlink:href="#DejaVuSans-97"/>
      <use x="979.052734" xlink:href="#DejaVuSans-116"/>
      <use x="1018.261719" xlink:href="#DejaVuSans-105"/>
      <use x="1046.044922" xlink:href="#DejaVuSans-111"/>
      <use x="1107.226562" xlink:href="#DejaVuSans-110"/>
      <use x="1170.605469" xlink:href="#DejaVuSans-115"/>
     </g>
    </g>
   </g>
   <g id="matplotlib.axis_2">
    <g id="ytick_1">
     <g id="line2d_7">
      <defs>
       <path d="M 0 0 
L -3.5 0 
" id="m84cb5da810" style="stroke:#000000;stroke-width:0.8;"/>
      </defs>
      <g>
       <use style="stroke:#000000;stroke-width:0.8;" x="54" xlink:href="#m84cb5da810" y="248.032378"/>
      </g>
     </g>
     <g id="text_8">
      <!-- 0.0 -->
      <defs>
       <path d="M 10.6875 12.40625 
L 21 12.40625 
L 21 0 
L 10.6875 0 
z
" id="DejaVuSans-46"/>
      </defs>
      <g transform="translate(24.0995 253.503253)scale(0.144 -0.144)">
       <use xlink:href="#DejaVuSans-48"/>
       <use x="63.623047" xlink:href="#DejaVuSans-46"/>
       <use x="95.410156" xlink:href="#DejaVuSans-48"/>
      </g>
     </g>
    </g>
    <g id="ytick_2">
     <g id="line2d_8">
      <g>
       <use style="stroke:#000000;stroke-width:0.8;" x="54" xlink:href="#m84cb5da810" y="209.957904"/>
      </g>
     </g>
     <g id="text_9">
      <!-- 0.2 -->
      <g transform="translate(24.0995 215.428779)scale(0.144 -0.144)">
       <use xlink:href="#DejaVuSans-48"/>
       <use x="63.623047" xlink:href="#DejaVuSans-46"/>
       <use x="95.410156" xlink:href="#DejaVuSans-50"/>
      </g>
     </g>
    </g>
    <g id="ytick_3">
     <g id="line2d_9">
      <g>
       <use style="stroke:#000000;stroke-width:0.8;" x="54" xlink:href="#m84cb5da810" y="171.883429"/>
      </g>
     </g>
     <g id="text_10">
      <!-- 0.4 -->
      <defs>
       <path d="M 37.796875 64.3125 
L 12.890625 25.390625 
L 37.796875 25.390625 
z
M 35.203125 72.90625 
L 47.609375 72.90625 
L 47.609375 25.390625 
L 58.015625 25.390625 
L 58.015625 17.1875 
L 47.609375 17.1875 
L 47.609375 0 
L 37.796875 0 
L 37.796875 17.1875 
L 4.890625 17.1875 
L 4.890625 26.703125 
z
" id="DejaVuSans-52"/>
      </defs>
      <g transform="translate(24.0995 177.354304)scale(0.144 -0.144)">
       <use xlink:href="#DejaVuSans-48"/>
       <use x="63.623047" xlink:href="#DejaVuSans-46"/>
       <use x="95.410156" xlink:href="#DejaVuSans-52"/>
      </g>
     </g>
    </g>
    <g id="ytick_4">
     <g id="line2d_10">
      <g>
       <use style="stroke:#000000;stroke-width:0.8;" x="54" xlink:href="#m84cb5da810" y="133.808954"/>
      </g>
     </g>
     <g id="text_11">
      <!-- 0.6 -->
      <defs>
       <path d="M 33.015625 40.375 
Q 26.375 40.375 22.484375 35.828125 
Q 18.609375 31.296875 18.609375 23.390625 
Q 18.609375 15.53125 22.484375 10.953125 
Q 26.375 6.390625 33.015625 6.390625 
Q 39.65625 6.390625 43.53125 10.953125 
Q 47.40625 15.53125 47.40625 23.390625 
Q 47.40625 31.296875 43.53125 35.828125 
Q 39.65625 40.375 33.015625 40.375 
z
M 52.59375 71.296875 
L 52.59375 62.3125 
Q 48.875 64.0625 45.09375 64.984375 
Q 41.3125 65.921875 37.59375 65.921875 
Q 27.828125 65.921875 22.671875 59.328125 
Q 17.53125 52.734375 16.796875 39.40625 
Q 19.671875 43.65625 24.015625 45.921875 
Q 28.375 48.1875 33.59375 48.1875 
Q 44.578125 48.1875 50.953125 41.515625 
Q 57.328125 34.859375 57.328125 23.390625 
Q 57.328125 12.15625 50.6875 5.359375 
Q 44.046875 -1.421875 33.015625 -1.421875 
Q 20.359375 -1.421875 13.671875 8.265625 
Q 6.984375 17.96875 6.984375 36.375 
Q 6.984375 53.65625 15.1875 63.9375 
Q 23.390625 74.21875 37.203125 74.21875 
Q 40.921875 74.21875 44.703125 73.484375 
Q 48.484375 72.75 52.59375 71.296875 
z
" id="DejaVuSans-54"/>
      </defs>
      <g transform="translate(24.0995 139.279829)scale(0.144 -0.144)">
       <use xlink:href="#DejaVuSans-48"/>
       <use x="63.623047" xlink:href="#DejaVuSans-46"/>
       <use x="95.410156" xlink:href="#DejaVuSans-54"/>
      </g>
     </g>
    </g>
    <g id="ytick_5">
     <g id="line2d_11">
      <g>
       <use style="stroke:#000000;stroke-width:0.8;" x="54" xlink:href="#m84cb5da810" y="95.734479"/>
      </g>
     </g>
     <g id="text_12">
      <!-- 0.8 -->
      <defs>
       <path d="M 31.78125 34.625 
Q 24.75 34.625 20.71875 30.859375 
Q 16.703125 27.09375 16.703125 20.515625 
Q 16.703125 13.921875 20.71875 10.15625 
Q 24.75 6.390625 31.78125 6.390625 
Q 38.8125 6.390625 42.859375 10.171875 
Q 46.921875 13.96875 46.921875 20.515625 
Q 46.921875 27.09375 42.890625 30.859375 
Q 38.875 34.625 31.78125 34.625 
z
M 21.921875 38.8125 
Q 15.578125 40.375 12.03125 44.71875 
Q 8.5 49.078125 8.5 55.328125 
Q 8.5 64.0625 14.71875 69.140625 
Q 20.953125 74.21875 31.78125 74.21875 
Q 42.671875 74.21875 48.875 69.140625 
Q 55.078125 64.0625 55.078125 55.328125 
Q 55.078125 49.078125 51.53125 44.71875 
Q 48 40.375 41.703125 38.8125 
Q 48.828125 37.15625 52.796875 32.3125 
Q 56.78125 27.484375 56.78125 20.515625 
Q 56.78125 9.90625 50.3125 4.234375 
Q 43.84375 -1.421875 31.78125 -1.421875 
Q 19.734375 -1.421875 13.25 4.234375 
Q 6.78125 9.90625 6.78125 20.515625 
Q 6.78125 27.484375 10.78125 32.3125 
Q 14.796875 37.15625 21.921875 38.8125 
z
M 18.3125 54.390625 
Q 18.3125 48.734375 21.84375 45.5625 
Q 25.390625 42.390625 31.78125 42.390625 
Q 38.140625 42.390625 41.71875 45.5625 
Q 45.3125 48.734375 45.3125 54.390625 
Q 45.3125 60.0625 41.71875 63.234375 
Q 38.140625 66.40625 31.78125 66.40625 
Q 25.390625 66.40625 21.84375 63.234375 
Q 18.3125 60.0625 18.3125 54.390625 
z
" id="DejaVuSans-56"/>
      </defs>
      <g transform="translate(24.0995 101.205354)scale(0.144 -0.144)">
       <use xlink:href="#DejaVuSans-48"/>
       <use x="63.623047" xlink:href="#DejaVuSans-46"/>
       <use x="95.410156" xlink:href="#DejaVuSans-56"/>
      </g>
     </g>
    </g>
    <g id="ytick_6">
     <g id="line2d_12">
      <g>
       <use style="stroke:#000000;stroke-width:0.8;" x="54" xlink:href="#m84cb5da810" y="57.660005"/>
      </g>
     </g>
     <g id="text_13">
      <!-- 1.0 -->
      <g transform="translate(24.0995 63.13088)scale(0.144 -0.144)">
       <use xlink:href="#DejaVuSans-49"/>
       <use x="63.623047" xlink:href="#DejaVuSans-46"/>
       <use x="95.410156" xlink:href="#DejaVuSans-48"/>
      </g>
     </g>
    </g>
    <g id="text_14">
     <!-- Memory Usage (kB) -->
     <defs>
      <path d="M 9.8125 72.90625 
L 24.515625 72.90625 
L 43.109375 23.296875 
L 61.8125 72.90625 
L 76.515625 72.90625 
L 76.515625 0 
L 66.890625 0 
L 66.890625 64.015625 
L 48.09375 14.015625 
L 38.1875 14.015625 
L 19.390625 64.015625 
L 19.390625 0 
L 9.8125 0 
z
" id="DejaVuSans-77"/>
      <path d="M 32.171875 -5.078125 
Q 28.375 -14.84375 24.75 -17.8125 
Q 21.140625 -20.796875 15.09375 -20.796875 
L 7.90625 -20.796875 
L 7.90625 -13.28125 
L 13.1875 -13.28125 
Q 16.890625 -13.28125 18.9375 -11.515625 
Q 21 -9.765625 23.484375 -3.21875 
L 25.09375 0.875 
L 2.984375 54.6875 
L 12.5 54.6875 
L 29.59375 11.921875 
L 46.6875 54.6875 
L 56.203125 54.6875 
z
" id="DejaVuSans-121"/>
      <path d="M 8.6875 72.90625 
L 18.609375 72.90625 
L 18.609375 28.609375 
Q 18.609375 16.890625 22.84375 11.734375 
Q 27.09375 6.59375 36.625 6.59375 
Q 46.09375 6.59375 50.34375 11.734375 
Q 54.59375 16.890625 54.59375 28.609375 
L 54.59375 72.90625 
L 64.5 72.90625 
L 64.5 27.390625 
Q 64.5 13.140625 57.4375 5.859375 
Q 50.390625 -1.421875 36.625 -1.421875 
Q 22.796875 -1.421875 15.734375 5.859375 
Q 8.6875 13.140625 8.6875 27.390625 
z
" id="DejaVuSans-85"/>
      <path d="M 45.40625 27.984375 
Q 45.40625 37.75 41.375 43.109375 
Q 37.359375 48.484375 30.078125 48.484375 
Q 22.859375 48.484375 18.828125 43.109375 
Q 14.796875 37.75 14.796875 27.984375 
Q 14.796875 18.265625 18.828125 12.890625 
Q 22.859375 7.515625 30.078125 7.515625 
Q 37.359375 7.515625 41.375 12.890625 
Q 45.40625 18.265625 45.40625 27.984375 
z
M 54.390625 6.78125 
Q 54.390625 -7.171875 48.1875 -13.984375 
Q 42 -20.796875 29.203125 -20.796875 
Q 24.46875 -20.796875 20.265625 -20.09375 
Q 16.0625 -19.390625 12.109375 -17.921875 
L 12.109375 -9.1875 
Q 16.0625 -11.328125 19.921875 -12.34375 
Q 23.78125 -13.375 27.78125 -13.375 
Q 36.625 -13.375 41.015625 -8.765625 
Q 45.40625 -4.15625 45.40625 5.171875 
L 45.40625 9.625 
Q 42.625 4.78125 38.28125 2.390625 
Q 33.9375 0 27.875 0 
Q 17.828125 0 11.671875 7.65625 
Q 5.515625 15.328125 5.515625 27.984375 
Q 5.515625 40.671875 11.671875 48.328125 
Q 17.828125 56 27.875 56 
Q 33.9375 56 38.28125 53.609375 
Q 42.625 51.21875 45.40625 46.390625 
L 45.40625 54.6875 
L 54.390625 54.6875 
z
" id="DejaVuSans-103"/>
      <path d="M 31 75.875 
Q 24.46875 64.65625 21.28125 53.65625 
Q 18.109375 42.671875 18.109375 31.390625 
Q 18.109375 20.125 21.3125 9.0625 
Q 24.515625 -2 31 -13.1875 
L 23.1875 -13.1875 
Q 15.875 -1.703125 12.234375 9.375 
Q 8.59375 20.453125 8.59375 31.390625 
Q 8.59375 42.28125 12.203125 53.3125 
Q 15.828125 64.359375 23.1875 75.875 
z
" id="DejaVuSans-40"/>
      <path d="M 9.078125 75.984375 
L 18.109375 75.984375 
L 18.109375 31.109375 
L 44.921875 54.6875 
L 56.390625 54.6875 
L 27.390625 29.109375 
L 57.625 0 
L 45.90625 0 
L 18.109375 26.703125 
L 18.109375 0 
L 9.078125 0 
z
" id="DejaVuSans-107"/>
      <path d="M 19.671875 34.8125 
L 19.671875 8.109375 
L 35.5 8.109375 
Q 43.453125 8.109375 47.28125 11.40625 
Q 51.125 14.703125 51.125 21.484375 
Q 51.125 28.328125 47.28125 31.5625 
Q 43.453125 34.8125 35.5 34.8125 
z
M 19.671875 64.796875 
L 19.671875 42.828125 
L 34.28125 42.828125 
Q 41.5 42.828125 45.03125 45.53125 
Q 48.578125 48.25 48.578125 53.8125 
Q 48.578125 59.328125 45.03125 62.0625 
Q 41.5 64.796875 34.28125 64.796875 
z
M 9.8125 72.90625 
L 35.015625 72.90625 
Q 46.296875 72.90625 52.390625 68.21875 
Q 58.5 63.53125 58.5 54.890625 
Q 58.5 48.1875 55.375 44.234375 
Q 52.25 40.28125 46.1875 39.3125 
Q 53.46875 37.75 57.5 32.78125 
Q 61.53125 27.828125 61.53125 20.40625 
Q 61.53125 10.640625 54.890625 5.3125 
Q 48.25 0 35.984375 0 
L 9.8125 0 
z
" id="DejaVuSans-66"/>
      <path d="M 8.015625 75.875 
L 15.828125 75.875 
Q 23.140625 64.359375 26.78125 53.3125 
Q 30.421875 42.28125 30.421875 31.390625 
Q 30.421875 20.453125 26.78125 9.375 
Q 23.140625 -1.703125 15.828125 -13.1875 
L 8.015625 -13.1875 
Q 14.5 -2 17.703125 9.0625 
Q 20.90625 20.125 20.90625 31.390625 
Q 20.90625 42.671875 17.703125 53.65625 
Q 14.5 64.65625 8.015625 75.875 
z
" id="DejaVuSans-41"/>
     </defs>
     <g transform="translate(17.10475 214.300125)rotate(-90)scale(0.144 -0.144)">
      <use xlink:href="#DejaVuSans-77"/>
      <use x="86.279297" xlink:href="#DejaVuSans-101"/>
      <use x="147.802734" xlink:href="#DejaVuSans-109"/>
      <use x="245.214844" xlink:href="#DejaVuSans-111"/>
      <use x="306.396484" xlink:href="#DejaVuSans-114"/>
      <use x="347.509766" xlink:href="#DejaVuSans-121"/>
      <use x="406.689453" xlink:href="#DejaVuSans-32"/>
      <use x="438.476562" xlink:href="#DejaVuSans-85"/>
      <use x="511.669922" xlink:href="#DejaVuSans-115"/>
      <use x="563.769531" xlink:href="#DejaVuSans-97"/>
      <use x="625.048828" xlink:href="#DejaVuSans-103"/>
      <use x="688.525391" xlink:href="#DejaVuSans-101"/>
      <use x="750.048828" xlink:href="#DejaVuSans-32"/>
      <use x="781.835938" xlink:href="#DejaVuSans-40"/>
      <use x="820.849609" xlink:href="#DejaVuSans-107"/>
      <use x="878.759766" xlink:href="#DejaVuSans-66"/>
      <use x="947.363281" xlink:href="#DejaVuSans-41"/>
     </g>
    </g>
    <g id="text_15">
     <!-- 1e7 -->
     <defs>
      <path d="M 8.203125 72.90625 
L 55.078125 72.90625 
L 55.078125 68.703125 
L 28.609375 0 
L 18.3125 0 
L 43.21875 64.59375 
L 8.203125 64.59375 
z
" id="DejaVuSans-55"/>
     </defs>
     <g transform="translate(54 31.56)scale(0.1 -0.1)">
      <use xlink:href="#DejaVuSans-49"/>
      <use x="63.623047" xlink:href="#DejaVuSans-101"/>
      <use x="125.146484" xlink:href="#DejaVuSans-55"/>
     </g>
    </g>
   </g>
   <g id="line2d_13">
    <path clip-path="url(#pe04cabf253)" d="M 69.218182 236.379123 
L 81.9 233.746178 
L 94.581818 231.369357 
L 107.263636 230.713254 
L 119.945455 229.157287 
L 132.627273 227.708115 
L 145.309091 227.500332 
L 157.990909 227.421225 
L 170.672727 226.729185 
L 183.354545 226.101825 
L 196.036364 225.627266 
L 208.718182 225.514436 
L 221.4 225.448763 
L 234.081818 225.375705 
L 246.763636 225.327252 
L 259.445455 225.29615 
L 272.127273 225.225196 
L 284.809091 225.100226 
L 297.490909 224.926953 
L 310.172727 224.80916 
L 322.854545 224.771422 
L 335.536364 224.717513 
L 348.218182 224.662121 
L 360.9 224.620829 
L 373.581818 224.589387 
" style="fill:none;stroke:#1f77b4;stroke-linecap:square;stroke-width:1.5;"/>
    <defs>
     <path d="M 0 3 
C 0.795609 3 1.55874 2.683901 2.12132 2.12132 
C 2.683901 1.55874 3 0.795609 3 0 
C 3 -0.795609 2.683901 -1.55874 2.12132 -2.12132 
C 1.55874 -2.683901 0.795609 -3 0 -3 
C -0.795609 -3 -1.55874 -2.683901 -2.12132 -2.12132 
C -2.683901 -1.55874 -3 -0.795609 -3 0 
C -3 0.795609 -2.683901 1.55874 -2.12132 2.12132 
C -1.55874 2.683901 -0.795609 3 0 3 
z
" id="m364bb22623" style="stroke:#1f77b4;"/>
    </defs>
    <g clip-path="url(#pe04cabf253)">
     <use style="fill:#1f77b4;stroke:#1f77b4;" x="69.218182" xlink:href="#m364bb22623" y="236.379123"/>
     <use style="fill:#1f77b4;stroke:#1f77b4;" x="81.9" xlink:href="#m364bb22623" y="233.746178"/>
     <use style="fill:#1f77b4;stroke:#1f77b4;" x="94.581818" xlink:href="#m364bb22623" y="231.369357"/>
     <use style="fill:#1f77b4;stroke:#1f77b4;" x="107.263636" xlink:href="#m364bb22623" y="230.713254"/>
     <use style="fill:#1f77b4;stroke:#1f77b4;" x="119.945455" xlink:href="#m364bb22623" y="229.157287"/>
     <use style="fill:#1f77b4;stroke:#1f77b4;" x="132.627273" xlink:href="#m364bb22623" y="227.708115"/>
     <use style="fill:#1f77b4;stroke:#1f77b4;" x="145.309091" xlink:href="#m364bb22623" y="227.500332"/>
     <use style="fill:#1f77b4;stroke:#1f77b4;" x="157.990909" xlink:href="#m364bb22623" y="227.421225"/>
     <use style="fill:#1f77b4;stroke:#1f77b4;" x="170.672727" xlink:href="#m364bb22623" y="226.729185"/>
     <use style="fill:#1f77b4;stroke:#1f77b4;" x="183.354545" xlink:href="#m364bb22623" y="226.101825"/>
     <use style="fill:#1f77b4;stroke:#1f77b4;" x="196.036364" xlink:href="#m364bb22623" y="225.627266"/>
     <use style="fill:#1f77b4;stroke:#1f77b4;" x="208.718182" xlink:href="#m364bb22623" y="225.514436"/>
     <use style="fill:#1f77b4;stroke:#1f77b4;" x="221.4" xlink:href="#m364bb22623" y="225.448763"/>
     <use style="fill:#1f77b4;stroke:#1f77b4;" x="234.081818" xlink:href="#m364bb22623" y="225.375705"/>
     <use style="fill:#1f77b4;stroke:#1f77b4;" x="246.763636" xlink:href="#m364bb22623" y="225.327252"/>
     <use style="fill:#1f77b4;stroke:#1f77b4;" x="259.445455" xlink:href="#m364bb22623" y="225.29615"/>
     <use style="fill:#1f77b4;stroke:#1f77b4;" x="272.127273" xlink:href="#m364bb22623" y="225.225196"/>
     <use style="fill:#1f77b4;stroke:#1f77b4;" x="284.809091" xlink:href="#m364bb22623" y="225.100226"/>
     <use style="fill:#1f77b4;stroke:#1f77b4;" x="297.490909" xlink:href="#m364bb22623" y="224.926953"/>
     <use style="fill:#1f77b4;stroke:#1f77b4;" x="310.172727" xlink:href="#m364bb22623" y="224.80916"/>
     <use style="fill:#1f77b4;stroke:#1f77b4;" x="322.854545" xlink:href="#m364bb22623" y="224.771422"/>
     <use style="fill:#1f77b4;stroke:#1f77b4;" x="335.536364" xlink:href="#m364bb22623" y="224.717513"/>
     <use style="fill:#1f77b4;stroke:#1f77b4;" x="348.218182" xlink:href="#m364bb22623" y="224.662121"/>
     <use style="fill:#1f77b4;stroke:#1f77b4;" x="360.9" xlink:href="#m364bb22623" y="224.620829"/>
     <use style="fill:#1f77b4;stroke:#1f77b4;" x="373.581818" xlink:href="#m364bb22623" y="224.589387"/>
    </g>
   </g>
   <g id="line2d_14">
    <path clip-path="url(#pe04cabf253)" d="M 69.218182 242.116181 
L 81.9 242.024418 
L 94.581818 242.016244 
L 107.263636 241.980655 
L 119.945455 241.284301 
L 132.627273 241.109438 
L 145.309091 240.024649 
L 157.990909 239.841004 
L 170.672727 239.63904 
L 183.354545 238.056231 
L 196.036364 237.880857 
L 208.718182 237.710679 
L 221.4 235.647586 
L 234.081818 235.607702 
L 246.763636 235.607702 
L 259.445455 235.607702 
L 272.127273 235.607702 
L 284.809091 235.607702 
L 297.490909 233.016689 
L 310.172727 233.016689 
L 322.854545 232.43114 
L 335.536364 231.86143 
L 348.218182 231.378017 
L 360.9 229.46577 
L 373.581818 229.229972 
" style="fill:none;stroke:#ff7f0e;stroke-linecap:square;stroke-width:1.5;"/>
    <defs>
     <path d="M 0 3 
C 0.795609 3 1.55874 2.683901 2.12132 2.12132 
C 2.683901 1.55874 3 0.795609 3 0 
C 3 -0.795609 2.683901 -1.55874 2.12132 -2.12132 
C 1.55874 -2.683901 0.795609 -3 0 -3 
C -0.795609 -3 -1.55874 -2.683901 -2.12132 -2.12132 
C -2.683901 -1.55874 -3 -0.795609 -3 0 
C -3 0.795609 -2.683901 1.55874 -2.12132 2.12132 
C -1.55874 2.683901 -0.795609 3 0 3 
z
" id="mf2f86a9be1" style="stroke:#ff7f0e;"/>
    </defs>
    <g clip-path="url(#pe04cabf253)">
     <use style="fill:#ff7f0e;stroke:#ff7f0e;" x="69.218182" xlink:href="#mf2f86a9be1" y="242.116181"/>
     <use style="fill:#ff7f0e;stroke:#ff7f0e;" x="81.9" xlink:href="#mf2f86a9be1" y="242.024418"/>
     <use style="fill:#ff7f0e;stroke:#ff7f0e;" x="94.581818" xlink:href="#mf2f86a9be1" y="242.016244"/>
     <use style="fill:#ff7f0e;stroke:#ff7f0e;" x="107.263636" xlink:href="#mf2f86a9be1" y="241.980655"/>
     <use style="fill:#ff7f0e;stroke:#ff7f0e;" x="119.945455" xlink:href="#mf2f86a9be1" y="241.284301"/>
     <use style="fill:#ff7f0e;stroke:#ff7f0e;" x="132.627273" xlink:href="#mf2f86a9be1" y="241.109438"/>
     <use style="fill:#ff7f0e;stroke:#ff7f0e;" x="145.309091" xlink:href="#mf2f86a9be1" y="240.024649"/>
     <use style="fill:#ff7f0e;stroke:#ff7f0e;" x="157.990909" xlink:href="#mf2f86a9be1" y="239.841004"/>
     <use style="fill:#ff7f0e;stroke:#ff7f0e;" x="170.672727" xlink:href="#mf2f86a9be1" y="239.63904"/>
     <use style="fill:#ff7f0e;stroke:#ff7f0e;" x="183.354545" xlink:href="#mf2f86a9be1" y="238.056231"/>
     <use style="fill:#ff7f0e;stroke:#ff7f0e;" x="196.036364" xlink:href="#mf2f86a9be1" y="237.880857"/>
     <use style="fill:#ff7f0e;stroke:#ff7f0e;" x="208.718182" xlink:href="#mf2f86a9be1" y="237.710679"/>
     <use style="fill:#ff7f0e;stroke:#ff7f0e;" x="221.4" xlink:href="#mf2f86a9be1" y="235.647586"/>
     <use style="fill:#ff7f0e;stroke:#ff7f0e;" x="234.081818" xlink:href="#mf2f86a9be1" y="235.607702"/>
     <use style="fill:#ff7f0e;stroke:#ff7f0e;" x="246.763636" xlink:href="#mf2f86a9be1" y="235.607702"/>
     <use style="fill:#ff7f0e;stroke:#ff7f0e;" x="259.445455" xlink:href="#mf2f86a9be1" y="235.607702"/>
     <use style="fill:#ff7f0e;stroke:#ff7f0e;" x="272.127273" xlink:href="#mf2f86a9be1" y="235.607702"/>
     <use style="fill:#ff7f0e;stroke:#ff7f0e;" x="284.809091" xlink:href="#mf2f86a9be1" y="235.607702"/>
     <use style="fill:#ff7f0e;stroke:#ff7f0e;" x="297.490909" xlink:href="#mf2f86a9be1" y="233.016689"/>
     <use style="fill:#ff7f0e;stroke:#ff7f0e;" x="310.172727" xlink:href="#mf2f86a9be1" y="233.016689"/>
     <use style="fill:#ff7f0e;stroke:#ff7f0e;" x="322.854545" xlink:href="#mf2f86a9be1" y="232.43114"/>
     <use style="fill:#ff7f0e;stroke:#ff7f0e;" x="335.536364" xlink:href="#mf2f86a9be1" y="231.86143"/>
     <use style="fill:#ff7f0e;stroke:#ff7f0e;" x="348.218182" xlink:href="#mf2f86a9be1" y="231.378017"/>
     <use style="fill:#ff7f0e;stroke:#ff7f0e;" x="360.9" xlink:href="#mf2f86a9be1" y="229.46577"/>
     <use style="fill:#ff7f0e;stroke:#ff7f0e;" x="373.581818" xlink:href="#mf2f86a9be1" y="229.229972"/>
    </g>
   </g>
   <g id="line2d_15">
    <path clip-path="url(#pe04cabf253)" d="M 69.218182 201.55987 
L 81.9 201.435242 
L 94.581818 201.375095 
L 107.263636 201.296021 
L 119.945455 201.270467 
L 132.627273 201.247812 
L 145.309091 201.137155 
L 157.990909 201.07559 
L 170.672727 201.02839 
L 183.354545 200.952552 
L 196.036364 200.813633 
L 208.718182 200.460049 
L 221.4 200.197122 
L 234.081818 199.891096 
L 246.763636 199.547684 
L 259.445455 199.222583 
L 272.127273 199.040289 
L 284.809091 199.031976 
L 297.490909 198.964843 
L 310.172727 198.857226 
L 322.854545 198.569743 
L 335.536364 198.243298 
L 348.218182 197.850557 
L 360.9 197.386614 
L 373.581818 197.01686 
" style="fill:none;stroke:#2ca02c;stroke-linecap:square;stroke-width:1.5;"/>
    <defs>
     <path d="M 0 3 
C 0.795609 3 1.55874 2.683901 2.12132 2.12132 
C 2.683901 1.55874 3 0.795609 3 0 
C 3 -0.795609 2.683901 -1.55874 2.12132 -2.12132 
C 1.55874 -2.683901 0.795609 -3 0 -3 
C -0.795609 -3 -1.55874 -2.683901 -2.12132 -2.12132 
C -2.683901 -1.55874 -3 -0.795609 -3 0 
C -3 0.795609 -2.683901 1.55874 -2.12132 2.12132 
C -1.55874 2.683901 -0.795609 3 0 3 
z
" id="m77e02d7920" style="stroke:#2ca02c;"/>
    </defs>
    <g clip-path="url(#pe04cabf253)">
     <use style="fill:#2ca02c;stroke:#2ca02c;" x="69.218182" xlink:href="#m77e02d7920" y="201.55987"/>
     <use style="fill:#2ca02c;stroke:#2ca02c;" x="81.9" xlink:href="#m77e02d7920" y="201.435242"/>
     <use style="fill:#2ca02c;stroke:#2ca02c;" x="94.581818" xlink:href="#m77e02d7920" y="201.375095"/>
     <use style="fill:#2ca02c;stroke:#2ca02c;" x="107.263636" xlink:href="#m77e02d7920" y="201.296021"/>
     <use style="fill:#2ca02c;stroke:#2ca02c;" x="119.945455" xlink:href="#m77e02d7920" y="201.270467"/>
     <use style="fill:#2ca02c;stroke:#2ca02c;" x="132.627273" xlink:href="#m77e02d7920" y="201.247812"/>
     <use style="fill:#2ca02c;stroke:#2ca02c;" x="145.309091" xlink:href="#m77e02d7920" y="201.137155"/>
     <use style="fill:#2ca02c;stroke:#2ca02c;" x="157.990909" xlink:href="#m77e02d7920" y="201.07559"/>
     <use style="fill:#2ca02c;stroke:#2ca02c;" x="170.672727" xlink:href="#m77e02d7920" y="201.02839"/>
     <use style="fill:#2ca02c;stroke:#2ca02c;" x="183.354545" xlink:href="#m77e02d7920" y="200.952552"/>
     <use style="fill:#2ca02c;stroke:#2ca02c;" x="196.036364" xlink:href="#m77e02d7920" y="200.813633"/>
     <use style="fill:#2ca02c;stroke:#2ca02c;" x="208.718182" xlink:href="#m77e02d7920" y="200.460049"/>
     <use style="fill:#2ca02c;stroke:#2ca02c;" x="221.4" xlink:href="#m77e02d7920" y="200.197122"/>
     <use style="fill:#2ca02c;stroke:#2ca02c;" x="234.081818" xlink:href="#m77e02d7920" y="199.891096"/>
     <use style="fill:#2ca02c;stroke:#2ca02c;" x="246.763636" xlink:href="#m77e02d7920" y="199.547684"/>
     <use style="fill:#2ca02c;stroke:#2ca02c;" x="259.445455" xlink:href="#m77e02d7920" y="199.222583"/>
     <use style="fill:#2ca02c;stroke:#2ca02c;" x="272.127273" xlink:href="#m77e02d7920" y="199.040289"/>
     <use style="fill:#2ca02c;stroke:#2ca02c;" x="284.809091" xlink:href="#m77e02d7920" y="199.031976"/>
     <use style="fill:#2ca02c;stroke:#2ca02c;" x="297.490909" xlink:href="#m77e02d7920" y="198.964843"/>
     <use style="fill:#2ca02c;stroke:#2ca02c;" x="310.172727" xlink:href="#m77e02d7920" y="198.857226"/>
     <use style="fill:#2ca02c;stroke:#2ca02c;" x="322.854545" xlink:href="#m77e02d7920" y="198.569743"/>
     <use style="fill:#2ca02c;stroke:#2ca02c;" x="335.536364" xlink:href="#m77e02d7920" y="198.243298"/>
     <use style="fill:#2ca02c;stroke:#2ca02c;" x="348.218182" xlink:href="#m77e02d7920" y="197.850557"/>
     <use style="fill:#2ca02c;stroke:#2ca02c;" x="360.9" xlink:href="#m77e02d7920" y="197.386614"/>
     <use style="fill:#2ca02c;stroke:#2ca02c;" x="373.581818" xlink:href="#m77e02d7920" y="197.01686"/>
    </g>
   </g>
   <g id="line2d_16">
    <path clip-path="url(#pe04cabf253)" d="M 69.218182 236.426298 
L 81.9 234.698004 
L 94.581818 229.982753 
L 107.263636 223.271343 
L 119.945455 210.324783 
L 132.627273 190.950745 
L 145.309091 164.604829 
L 157.990909 143.852271 
L 170.672727 107.389178 
L 183.354545 79.835975 
L 196.036364 45.168572 
L 208.718182 45.155124 
L 221.4 45.068537 
L 234.081818 45.06774 
L 246.763636 45.06774 
L 259.445455 45.06774 
L 272.127273 45.06774 
L 284.809091 45.06774 
L 297.490909 45.06774 
L 310.172727 45.06774 
L 322.854545 45.06774 
L 335.536364 45.06774 
L 348.218182 45.06774 
L 360.9 45.06774 
L 373.581818 45.06774 
" style="fill:none;stroke:#d62728;stroke-linecap:square;stroke-width:1.5;"/>
    <defs>
     <path d="M 0 3 
C 0.795609 3 1.55874 2.683901 2.12132 2.12132 
C 2.683901 1.55874 3 0.795609 3 0 
C 3 -0.795609 2.683901 -1.55874 2.12132 -2.12132 
C 1.55874 -2.683901 0.795609 -3 0 -3 
C -0.795609 -3 -1.55874 -2.683901 -2.12132 -2.12132 
C -2.683901 -1.55874 -3 -0.795609 -3 0 
C -3 0.795609 -2.683901 1.55874 -2.12132 2.12132 
C -1.55874 2.683901 -0.795609 3 0 3 
z
" id="m9abfe30887" style="stroke:#d62728;"/>
    </defs>
    <g clip-path="url(#pe04cabf253)">
     <use style="fill:#d62728;stroke:#d62728;" x="69.218182" xlink:href="#m9abfe30887" y="236.426298"/>
     <use style="fill:#d62728;stroke:#d62728;" x="81.9" xlink:href="#m9abfe30887" y="234.698004"/>
     <use style="fill:#d62728;stroke:#d62728;" x="94.581818" xlink:href="#m9abfe30887" y="229.982753"/>
     <use style="fill:#d62728;stroke:#d62728;" x="107.263636" xlink:href="#m9abfe30887" y="223.271343"/>
     <use style="fill:#d62728;stroke:#d62728;" x="119.945455" xlink:href="#m9abfe30887" y="210.324783"/>
     <use style="fill:#d62728;stroke:#d62728;" x="132.627273" xlink:href="#m9abfe30887" y="190.950745"/>
     <use style="fill:#d62728;stroke:#d62728;" x="145.309091" xlink:href="#m9abfe30887" y="164.604829"/>
     <use style="fill:#d62728;stroke:#d62728;" x="157.990909" xlink:href="#m9abfe30887" y="143.852271"/>
     <use style="fill:#d62728;stroke:#d62728;" x="170.672727" xlink:href="#m9abfe30887" y="107.389178"/>
     <use style="fill:#d62728;stroke:#d62728;" x="183.354545" xlink:href="#m9abfe30887" y="79.835975"/>
     <use style="fill:#d62728;stroke:#d62728;" x="196.036364" xlink:href="#m9abfe30887" y="45.168572"/>
     <use style="fill:#d62728;stroke:#d62728;" x="208.718182" xlink:href="#m9abfe30887" y="45.155124"/>
     <use style="fill:#d62728;stroke:#d62728;" x="221.4" xlink:href="#m9abfe30887" y="45.068537"/>
     <use style="fill:#d62728;stroke:#d62728;" x="234.081818" xlink:href="#m9abfe30887" y="45.06774"/>
     <use style="fill:#d62728;stroke:#d62728;" x="246.763636" xlink:href="#m9abfe30887" y="45.06774"/>
     <use style="fill:#d62728;stroke:#d62728;" x="259.445455" xlink:href="#m9abfe30887" y="45.06774"/>
     <use style="fill:#d62728;stroke:#d62728;" x="272.127273" xlink:href="#m9abfe30887" y="45.06774"/>
     <use style="fill:#d62728;stroke:#d62728;" x="284.809091" xlink:href="#m9abfe30887" y="45.06774"/>
     <use style="fill:#d62728;stroke:#d62728;" x="297.490909" xlink:href="#m9abfe30887" y="45.06774"/>
     <use style="fill:#d62728;stroke:#d62728;" x="310.172727" xlink:href="#m9abfe30887" y="45.06774"/>
     <use style="fill:#d62728;stroke:#d62728;" x="322.854545" xlink:href="#m9abfe30887" y="45.06774"/>
     <use style="fill:#d62728;stroke:#d62728;" x="335.536364" xlink:href="#m9abfe30887" y="45.06774"/>
     <use style="fill:#d62728;stroke:#d62728;" x="348.218182" xlink:href="#m9abfe30887" y="45.06774"/>
     <use style="fill:#d62728;stroke:#d62728;" x="360.9" xlink:href="#m9abfe30887" y="45.06774"/>
     <use style="fill:#d62728;stroke:#d62728;" x="373.581818" xlink:href="#m9abfe30887" y="45.06774"/>
    </g>
   </g>
   <g id="patch_3">
    <path d="M 54 252 
L 54 34.56 
" style="fill:none;stroke:#000000;stroke-linecap:square;stroke-linejoin:miter;stroke-width:0.8;"/>
   </g>
   <g id="patch_4">
    <path d="M 388.8 252 
L 388.8 34.56 
" style="fill:none;stroke:#000000;stroke-linecap:square;stroke-linejoin:miter;stroke-width:0.8;"/>
   </g>
   <g id="patch_5">
    <path d="M 54 252 
L 388.8 252 
" style="fill:none;stroke:#000000;stroke-linecap:square;stroke-linejoin:miter;stroke-width:0.8;"/>
   </g>
   <g id="patch_6">
    <path d="M 54 34.56 
L 388.8 34.56 
" style="fill:none;stroke:#000000;stroke-linecap:square;stroke-linejoin:miter;stroke-width:0.8;"/>
   </g>
   <g id="legend_1">
    <g id="patch_7">
     <path d="M 61 101.2725 
L 133.41875 101.2725 
Q 135.41875 101.2725 135.41875 99.2725 
L 135.41875 41.56 
Q 135.41875 39.56 133.41875 39.56 
L 61 39.56 
Q 59 39.56 59 41.56 
L 59 99.2725 
Q 59 101.2725 61 101.2725 
z
" style="fill:#ffffff;opacity:0.8;stroke:#cccccc;stroke-linejoin:miter;"/>
    </g>
    <g id="line2d_17">
     <path d="M 63 47.658437 
L 83 47.658437 
" style="fill:none;stroke:#1f77b4;stroke-linecap:square;stroke-width:1.5;"/>
    </g>
    <g id="line2d_18">
     <g>
      <use style="fill:#1f77b4;stroke:#1f77b4;" x="73" xlink:href="#m364bb22623" y="47.658437"/>
     </g>
    </g>
    <g id="text_16">
     <!-- splitting -->
     <defs>
      <path d="M 18.109375 8.203125 
L 18.109375 -20.796875 
L 9.078125 -20.796875 
L 9.078125 54.6875 
L 18.109375 54.6875 
L 18.109375 46.390625 
Q 20.953125 51.265625 25.265625 53.625 
Q 29.59375 56 35.59375 56 
Q 45.5625 56 51.78125 48.09375 
Q 58.015625 40.1875 58.015625 27.296875 
Q 58.015625 14.40625 51.78125 6.484375 
Q 45.5625 -1.421875 35.59375 -1.421875 
Q 29.59375 -1.421875 25.265625 0.953125 
Q 20.953125 3.328125 18.109375 8.203125 
z
M 48.6875 27.296875 
Q 48.6875 37.203125 44.609375 42.84375 
Q 40.53125 48.484375 33.40625 48.484375 
Q 26.265625 48.484375 22.1875 42.84375 
Q 18.109375 37.203125 18.109375 27.296875 
Q 18.109375 17.390625 22.1875 11.75 
Q 26.265625 6.109375 33.40625 6.109375 
Q 40.53125 6.109375 44.609375 11.75 
Q 48.6875 17.390625 48.6875 27.296875 
z
" id="DejaVuSans-112"/>
      <path d="M 9.421875 75.984375 
L 18.40625 75.984375 
L 18.40625 0 
L 9.421875 0 
z
" id="DejaVuSans-108"/>
     </defs>
     <g transform="translate(91 51.158437)scale(0.1 -0.1)">
      <use xlink:href="#DejaVuSans-115"/>
      <use x="52.099609" xlink:href="#DejaVuSans-112"/>
      <use x="115.576172" xlink:href="#DejaVuSans-108"/>
      <use x="143.359375" xlink:href="#DejaVuSans-105"/>
      <use x="171.142578" xlink:href="#DejaVuSans-116"/>
      <use x="210.351562" xlink:href="#DejaVuSans-116"/>
      <use x="249.560547" xlink:href="#DejaVuSans-105"/>
      <use x="277.34375" xlink:href="#DejaVuSans-110"/>
      <use x="340.722656" xlink:href="#DejaVuSans-103"/>
     </g>
    </g>
    <g id="line2d_19">
     <path d="M 63 62.336562 
L 83 62.336562 
" style="fill:none;stroke:#ff7f0e;stroke-linecap:square;stroke-width:1.5;"/>
    </g>
    <g id="line2d_20">
     <g>
      <use style="fill:#ff7f0e;stroke:#ff7f0e;" x="73" xlink:href="#mf2f86a9be1" y="62.336562"/>
     </g>
    </g>
    <g id="text_17">
     <!-- rbcm -->
     <defs>
      <path d="M 48.78125 52.59375 
L 48.78125 44.1875 
Q 44.96875 46.296875 41.140625 47.34375 
Q 37.3125 48.390625 33.40625 48.390625 
Q 24.65625 48.390625 19.8125 42.84375 
Q 14.984375 37.3125 14.984375 27.296875 
Q 14.984375 17.28125 19.8125 11.734375 
Q 24.65625 6.203125 33.40625 6.203125 
Q 37.3125 6.203125 41.140625 7.25 
Q 44.96875 8.296875 48.78125 10.40625 
L 48.78125 2.09375 
Q 45.015625 0.34375 40.984375 -0.53125 
Q 36.96875 -1.421875 32.421875 -1.421875 
Q 20.0625 -1.421875 12.78125 6.34375 
Q 5.515625 14.109375 5.515625 27.296875 
Q 5.515625 40.671875 12.859375 48.328125 
Q 20.21875 56 33.015625 56 
Q 37.15625 56 41.109375 55.140625 
Q 45.0625 54.296875 48.78125 52.59375 
z
" id="DejaVuSans-99"/>
     </defs>
     <g transform="translate(91 65.836562)scale(0.1 -0.1)">
      <use xlink:href="#DejaVuSans-114"/>
      <use x="41.113281" xlink:href="#DejaVuSans-98"/>
      <use x="104.589844" xlink:href="#DejaVuSans-99"/>
      <use x="159.570312" xlink:href="#DejaVuSans-109"/>
     </g>
    </g>
    <g id="line2d_21">
     <path d="M 63 77.014687 
L 83 77.014687 
" style="fill:none;stroke:#2ca02c;stroke-linecap:square;stroke-width:1.5;"/>
    </g>
    <g id="line2d_22">
     <g>
      <use style="fill:#2ca02c;stroke:#2ca02c;" x="73" xlink:href="#m77e02d7920" y="77.014687"/>
     </g>
    </g>
    <g id="text_18">
     <!-- local -->
     <g transform="translate(91 80.514687)scale(0.1 -0.1)">
      <use xlink:href="#DejaVuSans-108"/>
      <use x="27.783203" xlink:href="#DejaVuSans-111"/>
      <use x="88.964844" xlink:href="#DejaVuSans-99"/>
      <use x="143.945312" xlink:href="#DejaVuSans-97"/>
      <use x="205.224609" xlink:href="#DejaVuSans-108"/>
     </g>
    </g>
    <g id="line2d_23">
     <path d="M 63 91.692813 
L 83 91.692813 
" style="fill:none;stroke:#d62728;stroke-linecap:square;stroke-width:1.5;"/>
    </g>
    <g id="line2d_24">
     <g>
      <use style="fill:#d62728;stroke:#d62728;" x="73" xlink:href="#m9abfe30887" y="91.692813"/>
     </g>
    </g>
    <g id="text_19">
     <!-- full GP -->
     <defs>
      <path d="M 59.515625 10.40625 
L 59.515625 29.984375 
L 43.40625 29.984375 
L 43.40625 38.09375 
L 69.28125 38.09375 
L 69.28125 6.78125 
Q 63.578125 2.734375 56.6875 0.65625 
Q 49.8125 -1.421875 42 -1.421875 
Q 24.90625 -1.421875 15.25 8.5625 
Q 5.609375 18.5625 5.609375 36.375 
Q 5.609375 54.25 15.25 64.234375 
Q 24.90625 74.21875 42 74.21875 
Q 49.125 74.21875 55.546875 72.453125 
Q 61.96875 70.703125 67.390625 67.28125 
L 67.390625 56.78125 
Q 61.921875 61.421875 55.765625 63.765625 
Q 49.609375 66.109375 42.828125 66.109375 
Q 29.4375 66.109375 22.71875 58.640625 
Q 16.015625 51.171875 16.015625 36.375 
Q 16.015625 21.625 22.71875 14.15625 
Q 29.4375 6.6875 42.828125 6.6875 
Q 48.046875 6.6875 52.140625 7.59375 
Q 56.25 8.5 59.515625 10.40625 
z
" id="DejaVuSans-71"/>
      <path d="M 19.671875 64.796875 
L 19.671875 37.40625 
L 32.078125 37.40625 
Q 38.96875 37.40625 42.71875 40.96875 
Q 46.484375 44.53125 46.484375 51.125 
Q 46.484375 57.671875 42.71875 61.234375 
Q 38.96875 64.796875 32.078125 64.796875 
z
M 9.8125 72.90625 
L 32.078125 72.90625 
Q 44.34375 72.90625 50.609375 67.359375 
Q 56.890625 61.8125 56.890625 51.125 
Q 56.890625 40.328125 50.609375 34.8125 
Q 44.34375 29.296875 32.078125 29.296875 
L 19.671875 29.296875 
L 19.671875 0 
L 9.8125 0 
z
" id="DejaVuSans-80"/>
     </defs>
     <g transform="translate(91 95.192813)scale(0.1 -0.1)">
      <use xlink:href="#DejaVuSans-102"/>
      <use x="35.205078" xlink:href="#DejaVuSans-117"/>
      <use x="98.583984" xlink:href="#DejaVuSans-108"/>
      <use x="126.367188" xlink:href="#DejaVuSans-108"/>
      <use x="154.150391" xlink:href="#DejaVuSans-32"/>
      <use x="185.9375" xlink:href="#DejaVuSans-71"/>
      <use x="263.427734" xlink:href="#DejaVuSans-80"/>
     </g>
    </g>
   </g>
  </g>
 </g>
 <defs>
  <clipPath id="pe04cabf253">
   <rect height="217.44" width="334.8" x="54" y="34.56"/>
  </clipPath>
 </defs>
</svg>
